Coordinates
version=1
nRows=38
nColumns=12
inDegrees=yes

Units are S.I. units (second, meters, Newtons, ...)
Angles are in degrees

endheader
time	SC_y	SC_z	SC_x	AC_y	AC_z	AC_x	GH_y	GH_z	GH_yy	EL_x	PS_y
       0.0              -19.44          26.82          38.93          49.71          1.071         -8.008         -110.8         -9.309          87.28          130.9          131.5
   0.04915              -19.44          26.82          38.94           49.7          1.072         -8.006         -110.7         -9.307          87.28          130.9          131.5
    0.0983              -19.44          26.82          38.94           49.7          1.072         -8.005         -110.7         -9.306          87.29          130.9          131.5
    0.1474              -19.44          26.82          38.95           49.7          1.072         -8.003         -110.6         -9.304          87.29          130.9          131.5
    0.1966              -19.44          26.82          38.96           49.7          1.072         -8.002         -110.6         -9.302           87.3          130.9          131.4
    0.2457              -19.44          26.82          38.97          49.69          1.072           -8.0         -110.6         -9.299           87.3          130.9          131.4
    0.2949              -19.44          26.82          38.98          49.69          1.073         -7.998         -110.5         -9.297          87.31          130.8          131.4
     0.344              -19.44          26.82          38.98          49.69          1.073         -7.996         -110.4         -9.294          87.32          130.8          131.4
    0.3932              -19.44          26.82          38.99          49.68          1.073         -7.994         -110.4         -9.292          87.33          130.8          131.4
    0.4423              -19.44          26.82          39.01          49.68          1.073         -7.992         -110.3         -9.289          87.33          130.8          131.3
    0.4915              -19.44          26.82          39.02          49.68          1.074          -7.99         -110.2         -9.286          87.34          130.8          131.3
    0.5406              -19.44          26.82          39.03          49.67          1.074         -7.987         -110.2         -9.282          87.35          130.7          131.3
    0.5898              -19.44          26.82          39.04          49.67          1.074         -7.984         -110.1         -9.279          87.36          130.7          131.3
    0.6389              -19.44          26.82          39.06          49.66          1.075         -7.981         -110.0         -9.275          87.37          130.7          131.2
    0.6881              -19.44          26.82          39.07          49.66          1.075         -7.978         -109.9         -9.271          87.38          130.6          131.2
    0.7372              -19.44          26.82          39.09          49.65          1.076         -7.974         -109.8         -9.266           87.4          130.6          131.2
    0.7864              -19.44          26.82          39.11          49.65          1.076          -7.97         -109.7         -9.261          87.41          130.6          131.1
    0.8355              -19.44          26.82          39.13          49.64          1.077         -7.966         -109.6         -9.256          87.42          130.5          131.1
    0.8847              -19.44          26.82          39.15          49.63          1.077         -7.962         -109.5          -9.25          87.44          130.5          131.0
    0.9338              -19.44          26.82          39.18          49.62          1.078         -7.957         -109.3         -9.243          87.46          130.5          131.0
     0.983              -19.44          26.82           39.2          49.62          1.078         -7.951         -109.2         -9.236          87.48          130.4          130.9
     1.032              -19.43          26.82          39.23          49.61          1.079         -7.945         -109.0         -9.228           87.5          130.3          130.9
     1.081              -19.43          26.82          39.27           49.6           1.08         -7.938         -108.8          -9.22          87.52          130.3          130.8
      1.13              -19.43          26.82           39.3          49.58          1.081         -7.931         -108.6          -9.21          87.55          130.2          130.8
      1.18              -19.43          26.82          39.34          49.57          1.082         -7.923         -108.3         -9.199          87.58          130.1          130.7
     1.229              -19.43          26.83          39.39          49.56          1.083         -7.913         -108.1         -9.187          87.61          130.1          130.6
     1.278              -19.43          26.83          39.44          49.54          1.084         -7.903         -107.8         -9.174          87.65          130.0          130.5
     1.327              -19.42          26.83          39.49          49.52          1.086         -7.892         -107.4         -9.159          87.69          129.9          130.4
     1.376              -19.42          26.83          39.56           49.5          1.087         -7.878         -107.1         -9.142          87.73          129.7          130.2
     1.425              -19.42          26.83          39.63          49.48          1.089         -7.864         -106.6         -9.123          87.79          129.6          130.1
     1.474              -19.42          26.83          39.71          49.45          1.091         -7.847         -106.2         -9.101          87.85          129.4          129.9
     1.524              -19.41          26.83           39.8          49.42          1.094         -7.827         -105.6         -9.075          87.92          129.3          129.7
     1.573              -19.41          26.83          39.91          49.38          1.097         -7.805         -105.0         -9.046           88.0          129.0          129.5
     1.622              -19.41          26.84          40.04          49.34            1.1         -7.778         -104.2         -9.012          88.09          128.8          129.3
     1.671               -19.4          26.84          40.19          49.29          1.104         -7.748         -103.3         -8.973           88.2          128.5          129.0
      1.72              -19.39          26.84          40.36          49.24          1.108         -7.712         -102.3         -8.926          88.32          128.2          128.6
     1.769              -19.39          26.84          40.57          49.17          1.113         -7.669         -101.1         -8.871          88.48          127.8          128.2
     1.819              -19.38          26.85          40.82          49.09           1.12         -7.617         -99.61         -8.804          88.66          127.3          127.7
